<?xml version="1.0" encoding="UTF-8" standalone="no"?>
<!DOCTYPE svg PUBLIC "-//W3C//DTD SVG 1.1//EN" "http://www.w3.org/Graphics/SVG/1.1/DTD/svg11.dtd">
<svg width="100%" height="100%" viewBox="0 0 152 65" version="1.1" xmlns="http://www.w3.org/2000/svg" xmlns:xlink="http://www.w3.org/1999/xlink" xml:space="preserve" xmlns:serif="http://www.serif.com/" style="fill-rule:evenodd;clip-rule:evenodd;stroke-linejoin:round;stroke-miterlimit:2;">
    <g transform="matrix(1,0,0,1,-28.3644,-76.9316)">
        <g transform="matrix(68.5857,0,0,73.6885,152.411,139.051)">
            <path d="M0.073,-0.27C0.073,-0.323 0.074,-0.371 0.075,-0.415L0.022,-0.424C0.018,-0.44 0.015,-0.454 0.013,-0.467C0.012,-0.479 0.011,-0.492 0.011,-0.506L0.012,-0.516C0.013,-0.521 0.013,-0.524 0.013,-0.527L0.084,-0.543C0.086,-0.563 0.089,-0.586 0.095,-0.611C0.101,-0.637 0.107,-0.655 0.114,-0.667C0.124,-0.675 0.137,-0.681 0.151,-0.685C0.166,-0.689 0.182,-0.691 0.199,-0.691C0.213,-0.691 0.227,-0.69 0.24,-0.687C0.254,-0.684 0.266,-0.68 0.276,-0.676C0.277,-0.665 0.277,-0.652 0.277,-0.638C0.277,-0.614 0.276,-0.588 0.274,-0.558L0.36,-0.574C0.372,-0.553 0.378,-0.53 0.378,-0.506C0.378,-0.489 0.376,-0.474 0.372,-0.46C0.368,-0.446 0.362,-0.431 0.355,-0.414C0.333,-0.41 0.304,-0.408 0.267,-0.407C0.262,-0.354 0.252,-0.276 0.236,-0.173L0.234,-0.156L0.235,-0.155L0.35,-0.191C0.373,-0.171 0.388,-0.14 0.393,-0.099C0.393,-0.097 0.383,-0.086 0.362,-0.067C0.341,-0.048 0.314,-0.031 0.283,-0.014C0.251,0.002 0.217,0.01 0.18,0.01C0.115,0.01 0.08,-0.03 0.076,-0.109C0.074,-0.149 0.073,-0.202 0.073,-0.27Z" style="fill:rgb(100,149,237);fill-rule:nonzero;"/>
        </g>
        <g transform="matrix(68.5857,0,0,73.6885,133.444,139.051)">
            <path d="M0.096,-0.024C0.096,-0.038 0.095,-0.079 0.094,-0.148C0.091,-0.249 0.09,-0.337 0.09,-0.41C0.09,-0.482 0.091,-0.543 0.094,-0.593L0.014,-0.603C0.009,-0.623 0.006,-0.639 0.004,-0.653C0.003,-0.666 0.002,-0.681 0.002,-0.698C0.009,-0.706 0.021,-0.715 0.039,-0.724C0.057,-0.734 0.077,-0.741 0.099,-0.748C0.122,-0.754 0.144,-0.757 0.165,-0.757C0.203,-0.757 0.234,-0.748 0.258,-0.731C0.281,-0.715 0.294,-0.69 0.295,-0.658C0.296,-0.639 0.296,-0.623 0.296,-0.61C0.296,-0.548 0.294,-0.474 0.289,-0.387C0.283,-0.301 0.276,-0.198 0.268,-0.08L0.263,-0.011C0.237,0.003 0.208,0.01 0.175,0.01C0.147,0.01 0.12,0.005 0.096,-0.005L0.096,-0.024Z" style="fill:rgb(100,149,237);fill-rule:nonzero;"/>
        </g>
        <g transform="matrix(0.113306,0,0,0.115156,100,76.9317)">
            <path d="M372.57,112.641L372.57,101.816C372.57,58.204 332.05,25.125 289.531,36.27C263.902,-13.23 195.441,-11.18 171.549,37.017C130.269,26.456 89.144,57.945 89.144,102L89.144,228.13C69.191,220.703 45.836,223.062 27.061,237.001C-2.294,258.797 -8.733,300.334 12.511,330.154L132.48,498.569C138.479,506.99 148.203,512.001 158.542,512.001L381.439,512.001C396.343,512.001 409.274,501.712 412.621,487.188L442.805,356.23C446.254,341.253 447.997,325.933 448,310.564L448,179C448,138.38 412.477,107.008 372.57,112.641ZM399.997,310.563C399.997,322.294 398.663,334.032 396.032,345.449L368.707,464L166.787,464L51.591,302.303C37.152,282.033 66.614,259.527 80.985,279.698L108.113,317.777C117.108,330.403 137.144,324.064 137.144,308.494L137.144,102C137.144,76.355 173.715,77.19 173.715,102.691L173.715,256C173.715,264.837 180.878,272 189.715,272L196.571,272C205.408,272 212.571,264.837 212.571,256L212.571,67C212.571,41.337 249.142,42.19 249.142,67.691L249.142,256C249.142,264.837 256.305,272 265.142,272L271.998,272C280.835,272 287.998,264.837 287.998,256L287.998,101.125C287.998,75.453 324.568,76.315 324.568,101.816L324.568,256C324.568,264.837 331.731,272 340.568,272L347.425,272C356.262,272 363.425,264.837 363.425,256L363.425,179.691C363.425,153.449 399.995,154.051 399.995,179L399.995,310.563L399.997,310.563Z" style="fill:rgb(100,149,237);fill-rule:nonzero;"/>
        </g>
        <g>
            <path d="M71.168,118.205L71.168,118.214C71.168,120.845 70.644,123.578 69.594,126.411C68.545,129.245 67.27,131.829 65.771,134.165C64.272,136.5 62.856,138.314 61.523,139.606C60.69,139.824 59.791,139.933 58.825,139.933C57.675,139.933 56.563,139.789 55.489,139.501C54.414,139.213 53.544,138.797 52.878,138.252C52.761,137.878 52.553,136.85 52.253,135.169C51.82,132.802 51.487,131.098 51.253,130.055L50.754,130.055C49.837,133.791 48.488,136.921 46.706,139.443C45.789,139.77 44.615,139.933 43.182,139.933C41.966,139.933 40.809,139.812 39.709,139.571C38.61,139.33 37.785,138.976 37.235,138.509C37.019,137.076 36.586,135.13 35.936,132.67C35.286,130.21 34.574,127.867 33.8,125.641C33.025,123.414 32.346,121.842 31.763,120.923L30.114,120.62C29.614,119.281 29.364,117.7 29.364,115.879C29.814,114.711 30.555,113.73 31.588,112.936C32.621,112.142 33.92,111.745 35.486,111.745C36.486,111.745 37.352,111.936 38.085,112.317C38.818,112.699 39.484,113.279 40.084,114.057C41,115.272 41.708,116.953 42.208,119.102C42.641,120.986 43.003,123.185 43.295,125.699C43.586,128.213 43.732,130.584 43.732,132.81L44.707,132.834C45.39,130.685 45.939,128.638 46.356,126.692C46.772,124.745 47.081,122.426 47.28,119.732L44.332,119.195C44.082,118.354 43.907,117.626 43.807,117.012C43.707,116.397 43.657,115.739 43.657,115.038C43.657,114.633 43.99,114.17 44.657,113.649C45.323,113.127 46.185,112.687 47.243,112.329C48.301,111.971 49.396,111.792 50.529,111.792C54.81,111.792 56.951,113.808 56.951,117.841C56.951,119.133 56.651,120.55 56.051,122.091C57.017,125.205 57.733,128.786 58.2,132.834L58.65,132.857C59.333,131.362 59.953,129.334 60.511,126.773C61.069,124.212 61.348,121.842 61.348,119.662L58.9,119.218C58.65,118.378 58.475,117.65 58.375,117.035C58.275,116.42 58.225,115.762 58.225,115.061C58.225,114.657 58.521,114.193 59.112,113.672C59.703,113.15 60.49,112.707 61.473,112.341C62.456,111.975 63.497,111.792 64.597,111.792C67.799,111.792 69.831,112.936 70.693,115.223C70.705,115.06 70.725,114.898 70.752,114.735C73.451,112.773 76.941,111.792 81.222,111.792C83.588,111.792 85.687,112.041 87.519,112.539C89.351,113.037 90.859,114.003 92.042,115.435C93.224,116.867 93.816,118.899 93.816,121.53C93.816,124.099 93.495,126.587 92.854,128.992C92.212,131.397 91.883,132.623 91.867,132.67L95.49,131.222C95.973,131.705 96.402,132.293 96.777,132.985C96.99,133.379 97.158,133.806 97.282,134.267C97.243,133.381 97.223,132.405 97.223,131.339C97.223,128.801 97.256,126.882 97.323,125.582C97.389,124.282 97.564,122.371 97.848,119.849L94.949,119.499C94.599,118.487 94.37,117.584 94.262,116.79C94.154,115.996 94.099,114.968 94.099,113.707C94.366,113.489 94.812,113.228 95.436,112.925C96.061,112.621 96.806,112.356 97.673,112.131C98.539,111.905 99.413,111.792 100.296,111.792C102.312,111.792 103.74,112.197 104.582,113.006C105.423,113.816 105.844,115.03 105.844,116.65C105.844,117.553 105.702,118.775 105.419,120.316C104.952,122.792 104.719,124.092 104.719,124.216C104.719,124.294 104.777,124.368 104.894,124.438C105.011,124.508 105.136,124.543 105.269,124.543C105.419,124.543 105.519,124.489 105.569,124.38C106.235,121.904 106.901,119.833 107.568,118.168C108.234,116.502 109.242,115.023 110.591,113.73C111.94,112.438 113.69,111.792 115.839,111.792C118.504,111.792 120.42,112.551 121.586,114.069C122.752,115.587 123.335,117.498 123.335,119.802C123.335,121.857 123.077,123.839 122.56,125.746C122.044,127.653 121.402,129.642 120.636,131.713C120.669,131.635 120.553,131.938 120.286,132.623L120.336,132.67L123.984,131.269C125.284,132.312 126.042,133.698 126.258,135.426C126.258,135.535 125.888,135.979 125.146,136.757C124.405,137.536 123.426,138.259 122.21,138.929C120.994,139.598 119.595,139.933 118.012,139.933C116.43,139.933 115.139,139.536 114.139,138.742C113.14,137.948 112.64,136.594 112.64,134.679C112.64,133.153 112.707,131.113 112.84,128.56C112.973,126.007 113.107,123.951 113.24,122.395C112.807,121.959 112.274,121.725 111.641,121.694C111.058,122.395 110.2,123.796 109.067,125.898C107.934,127.999 107.135,129.572 106.668,130.615C106.635,130.833 106.618,131.043 106.618,131.246C106.618,132.024 106.743,133.071 106.993,134.387C107.243,135.702 107.551,136.928 107.917,138.065C107.618,138.594 107.001,139.038 106.068,139.396C105.136,139.754 103.986,139.933 102.62,139.933C101.387,139.933 100.4,139.84 99.659,139.653C98.918,139.466 98.397,139.268 98.097,139.057C97.798,138.847 97.648,138.719 97.648,138.672C97.631,138.532 97.589,138.162 97.523,137.563C97.468,137.072 97.414,136.421 97.359,135.608C97.09,136.036 96.625,136.555 95.965,137.166C95.182,137.89 94.224,138.532 93.091,139.092C91.958,139.653 90.776,139.933 89.543,139.933C88.16,139.933 87.115,139.552 86.407,138.789C85.699,138.026 85.345,137.037 85.345,135.823C85.345,135.138 85.453,134.445 85.67,133.744L84.92,133.534C84.454,135.994 83.463,137.676 81.947,138.579C80.431,139.482 78.757,139.933 76.924,139.933C75.725,139.933 74.567,139.618 73.451,138.987C72.335,138.357 71.427,137.438 70.727,136.232C70.028,135.025 69.678,133.612 69.678,131.993C69.678,129.408 70.369,127.443 71.752,126.096C73.135,124.749 75.142,124.076 77.774,124.076C78.757,124.076 79.844,124.169 81.035,124.356C82.226,124.543 83.321,124.769 84.321,125.034L84.321,124.31C84.321,123.827 84.308,123.29 84.283,122.698C84.258,122.107 84.221,121.717 84.171,121.53C84.021,121.266 83.592,120.993 82.884,120.713C82.176,120.433 81.022,120.293 79.423,120.293C78.44,120.293 77.428,120.406 76.387,120.631C75.346,120.857 74.192,121.157 72.926,121.53C72.243,120.472 71.698,119.464 71.29,118.506C71.247,118.406 71.206,118.306 71.168,118.205ZM126.292,126.575C126.292,124.037 126.334,121.725 126.417,119.639L123.693,119.195C123.477,118.417 123.327,117.732 123.244,117.14C123.16,116.548 123.119,115.918 123.119,115.248L123.169,114.781C123.219,114.563 123.244,114.384 123.244,114.244L126.867,113.497C126.95,112.531 127.142,111.442 127.441,110.227C127.741,109.013 128.058,108.118 128.391,107.542C128.924,107.168 129.565,106.888 130.315,106.701C131.065,106.514 131.873,106.421 132.739,106.421C133.472,106.421 134.184,106.487 134.875,106.619C135.567,106.751 136.17,106.927 136.687,107.145C136.737,107.674 136.762,108.281 136.762,108.966C136.762,110.087 136.703,111.356 136.587,112.773L140.985,112.025C141.601,113.022 141.909,114.104 141.909,115.272C141.909,116.081 141.805,116.813 141.597,117.467C141.389,118.121 141.101,118.86 140.735,119.686C139.635,119.857 138.128,119.966 136.212,120.012C135.979,122.55 135.462,126.279 134.663,131.199L134.538,131.993L134.588,132.04L140.46,130.335C141.676,131.285 142.417,132.748 142.684,134.725C142.684,134.834 142.147,135.344 141.072,136.255C139.998,137.166 138.652,138.006 137.037,138.777C135.421,139.548 133.663,139.933 131.764,139.933C128.449,139.933 126.684,138.042 126.467,134.258C126.35,132.343 126.292,129.782 126.292,126.575ZM80.622,132.974C81.039,132.896 81.534,132.678 82.109,132.32C82.684,131.962 83.196,131.534 83.646,131.035C84.096,130.537 84.362,130.062 84.445,129.611L84.296,129.05C83.413,128.941 82.471,128.887 81.472,128.887C80.622,128.887 80.039,128.949 79.723,129.074C79.19,129.634 78.923,130.257 78.923,130.942C78.923,131.44 79.061,131.892 79.336,132.296C79.61,132.701 80.039,132.927 80.622,132.974Z" style="fill:rgb(250,245,135);fill-rule:nonzero;stroke:rgb(100,149,237);stroke-width:2px;"/>
        </g>
        <path d="M140.591,83.829C141.602,85.151 142.214,86.823 142.214,88.656L142.214,89.903C146.736,89.254 150.761,92.867 150.761,97.545L150.761,112.695C150.761,114.465 150.563,116.229 150.172,117.954L146.752,133.034C146.428,134.465 145.309,135.539 143.936,135.819C142.566,135.685 141.257,135.363 140.008,134.854L140.008,133.548C140.008,133.095 139.998,133.222 139.978,131.93C139.976,131.75 140.097,131.701 140.094,131.504L141.777,130.364L144.873,116.712C145.171,115.398 145.322,114.046 145.322,112.695L145.322,112.695L145.322,97.545C145.322,94.672 141.178,94.602 141.178,97.624L141.178,106.412C141.178,107.346 140.494,108.117 139.608,108.238C139.607,107.839 139.606,107.446 139.606,107.058C139.606,102.124 139.696,97.949 139.874,94.533L136.775,94.134L136.775,88.656C136.775,87.142 135.674,86.383 134.607,86.407C135.016,86.116 135.516,85.816 136.107,85.507C137.323,84.871 138.708,84.341 140.259,83.917C140.37,83.887 140.48,83.857 140.591,83.829Z" style="fill:rgb(250,245,135);fill-rule:nonzero;"/>
    </g>
</svg>
