<svg id="Layer_1" data-name="Layer 1" xmlns="http://www.w3.org/2000/svg" width="117.53" height="73.11" viewBox="0 0 117.53 73.11"><title>logo-yellow</title><g id="Page-1"><g id="logo"><g id="Group-2" data-name="Group"><path id="Path" d="M77.42,70.4c0-1.16-.08-4.57-.15-10.29C77,51.73,77,44.42,77,38.37s.08-11,.31-15.19l-6.16-.83c-.39-1.66-.62-3-.77-4.15s-.15-2.32-.15-3.74A9.43,9.43,0,0,1,73,12.3a24.11,24.11,0,0,1,4.62-2,18.77,18.77,0,0,1,5.08-.75,11.49,11.49,0,0,1,7.16,2.16,7.5,7.5,0,0,1,2.85,6.06c.08,1.58.08,2.91.08,4,0,5.15-.15,11.29-.54,18.51s-1,15.69-1.62,25.48l-.38,5.73a13.18,13.18,0,0,1-6.78,1.74A14.85,14.85,0,0,1,77.42,72Z" transform="translate(0 -0.11)" fill="#6495ed"/></g><g id="Group-3" data-name="Group"><path id="Shape" d="M61.16,16.17V14.63c0-6.22-5.61-10.93-11.49-9.35a9,9,0,0,0-16.33.11,9.27,9.27,0,0,0-11.4,9.27v18a8.84,8.84,0,0,0-8.59,1.26,9.81,9.81,0,0,0-2,13.28l16.6,24a4.39,4.39,0,0,0,3.61,1.92H62.39a4.46,4.46,0,0,0,4.32-3.54L70.88,50.9a29.88,29.88,0,0,0,.72-6.51V25.63A9.31,9.31,0,0,0,61.16,16.17ZM65,44.39a22.82,22.82,0,0,1-.55,5l-3.78,16.9H32.69L16.74,43.21c-2-2.89,2.08-6.1,4.07-3.22l3.75,5.43a2.21,2.21,0,0,0,4-1.32V14.66a2.54,2.54,0,1,1,5.06.1V36.61a2.25,2.25,0,0,0,2.21,2.28h.95A2.25,2.25,0,0,0,39,36.61V9.67a2.54,2.54,0,1,1,5.06.1V36.61a2.25,2.25,0,0,0,2.21,2.28h.95a2.25,2.25,0,0,0,2.21-2.28V14.53a2.54,2.54,0,1,1,5.06.1v22a2.25,2.25,0,0,0,2.21,2.28h.95a2.25,2.25,0,0,0,2.21-2.28V25.73a2.54,2.54,0,1,1,5.06-.1V44.39Z" transform="translate(0 -0.11)" fill="#6495ed"/></g><path id="Path-2" data-name="Path" d="M97.37,54.22c0-3.55.06-6.77.13-9.72l-3.34-.6c-.25-1.07-.44-2-.57-2.88s-.13-1.67-.13-2.61l.06-.67a3.49,3.49,0,0,0,.06-.74l4.47-1.07a35.52,35.52,0,0,1,.69-4.56,14.63,14.63,0,0,1,1.2-3.75,6.55,6.55,0,0,1,2.33-1.21,11,11,0,0,1,3-.4,10.93,10.93,0,0,1,2.58.27,13.35,13.35,0,0,1,2.27.74c.06.74.06,1.61.06,2.55,0,1.61-.06,3.35-.19,5.36l5.42-1.07a9.54,9.54,0,0,1,1.13,4.56,11.74,11.74,0,0,1-.38,3.08,31.44,31.44,0,0,1-1.07,3.08,36.34,36.34,0,0,1-5.54.47c-.32,3.55-.94,8.78-2,15.68l-.13,1.14.06.07,7.24-2.41a9.64,9.64,0,0,1,2.71,6.16,10.68,10.68,0,0,1-2,2.14,26.25,26.25,0,0,1-5,3.55A13.55,13.55,0,0,1,104.11,73c-4.1,0-6.3-2.68-6.55-8C97.44,62.33,97.37,58.78,97.37,54.22Z" transform="translate(0 -0.11)" fill="#6495ed"/><g id="Group-4" data-name="Group"><path id="Shape-2" data-name="Shape" d="M28.16,58.15h0a15.49,15.49,0,0,1-1,5.39,26.34,26.34,0,0,1-2.52,5.1,20.31,20.31,0,0,1-2.79,3.58,7,7,0,0,1-1.78.22,8.44,8.44,0,0,1-2.19-.28,4.53,4.53,0,0,1-1.72-.82q-.12-.37-.41-2-.43-2.34-.66-3.36h-.33a18.08,18.08,0,0,1-2.66,6.18,7,7,0,0,1-2.32.32,10.65,10.65,0,0,1-2.28-.24,3.75,3.75,0,0,1-1.63-.7A38.4,38.4,0,0,0,5,67.67Q4.34,65.24,3.58,63a16.38,16.38,0,0,0-1.34-3.1l-1.08-.2a8.91,8.91,0,0,1-.49-3.12,4.41,4.41,0,0,1,1.46-1.94,4.08,4.08,0,0,1,2.56-.78,3.66,3.66,0,0,1,1.71.38,4,4,0,0,1,1.32,1.14,8.82,8.82,0,0,1,1.4,3.32,40.43,40.43,0,0,1,.72,4.34,40.8,40.8,0,0,1,.29,4.68l.64,0q.67-2.12,1.08-4a34.33,34.33,0,0,0,.61-4.58l-1.94-.35a11.84,11.84,0,0,1-.35-1.44,8.1,8.1,0,0,1-.1-1.3q0-.4.66-.91a5.71,5.71,0,0,1,1.7-.87,6.7,6.7,0,0,1,2.16-.35q4.22,0,4.22,4a7.77,7.77,0,0,1-.59,2.8,39.1,39.1,0,0,1,1.41,7.07l.3,0a20.36,20.36,0,0,0,1.22-4,22.08,22.08,0,0,0,.55-4.68l-1.61-.29a11.78,11.78,0,0,1-.35-1.44,8.1,8.1,0,0,1-.1-1.3,1.38,1.38,0,0,1,.58-.91,4.92,4.92,0,0,1,1.55-.88,5.84,5.84,0,0,1,2.06-.36q3.16,0,4,2.26c0-.11,0-.21,0-.32a11.43,11.43,0,0,1,6.89-1.94,15.84,15.84,0,0,1,4.14.49,5.71,5.71,0,0,1,3,1.91,6.14,6.14,0,0,1,1.17,4,19,19,0,0,1-.63,4.91l-.65,2.42,2.38-1A5,5,0,0,1,45,67.88a3.89,3.89,0,0,1,.33.84q0-.87,0-1.93,0-2.5.07-3.79t.35-3.77L43.81,59a9.44,9.44,0,0,1-.45-1.78,15.59,15.59,0,0,1-.11-2,4.79,4.79,0,0,1,.88-.51,7.94,7.94,0,0,1,1.47-.52,6.81,6.81,0,0,1,1.73-.22,4,4,0,0,1,2.82.8,3.18,3.18,0,0,1,.83,2.4,14.15,14.15,0,0,1-.28,2.41q-.46,2.44-.46,2.57c0,.05,0,.1.12.15a.47.47,0,0,0,.25.07.19.19,0,0,0,.2-.11,37.18,37.18,0,0,1,1.32-4.09,8.26,8.26,0,0,1,2-2.92,4.79,4.79,0,0,1,3.45-1.28,4.47,4.47,0,0,1,3.78,1.5,6,6,0,0,1,1.15,3.77A14.88,14.88,0,0,1,62,63.11Q61.46,65,60.71,67l-.23.6,0,0,2.4-.92a4,4,0,0,1,1.5,2.73,3.86,3.86,0,0,1-.73.88,7.92,7.92,0,0,1-1.93,1.43,5.64,5.64,0,0,1-2.76.66,4,4,0,0,1-2.55-.78,3.23,3.23,0,0,1-1-2.67q0-1.51.13-4t.26-4.06a1.54,1.54,0,0,0-1.05-.46,19.3,19.3,0,0,0-1.69,2.77q-1.12,2.07-1.58,3.1a2.77,2.77,0,0,0,0,.42,11.71,11.71,0,0,0,.25,2.07,20.24,20.24,0,0,0,.61,2.42,2.26,2.26,0,0,1-1.22.88,6.36,6.36,0,0,1-2.27.35,8.26,8.26,0,0,1-1.95-.18,3.32,3.32,0,0,1-1-.39q-.3-.21-.3-.25l-.08-.73q-.05-.48-.11-1.29a5.57,5.57,0,0,1-.92,1,8,8,0,0,1-1.89,1.27,5.19,5.19,0,0,1-2.33.55,2.68,2.68,0,0,1-2.06-.75,2.76,2.76,0,0,1-.7-2,4.61,4.61,0,0,1,.21-1.37l-.49-.14a4.6,4.6,0,0,1-2,3.32,6.34,6.34,0,0,1-3.3.89,4.58,4.58,0,0,1-2.28-.62A4.78,4.78,0,0,1,27.87,70a5.47,5.47,0,0,1-.69-2.79,5.17,5.17,0,0,1,1.36-3.88,5.45,5.45,0,0,1,4-1.33,13.92,13.92,0,0,1,2.15.18,21.45,21.45,0,0,1,2.16.45v-.48q0-.48,0-1.06a4.46,4.46,0,0,0-.07-.77,1.72,1.72,0,0,0-.85-.54,6.74,6.74,0,0,0-2.28-.28,9.44,9.44,0,0,0-2,.22q-1,.22-2.28.59a13.34,13.34,0,0,1-1.08-2Zm36.27,5.51q0-2.5.08-4.56l-1.79-.29a10.7,10.7,0,0,1-.3-1.35,8.87,8.87,0,0,1-.08-1.24l0-.31a1.65,1.65,0,0,0,0-.35l2.38-.49a14.21,14.21,0,0,1,.38-2.15,7.15,7.15,0,0,1,.63-1.77,3.77,3.77,0,0,1,1.27-.55,6.58,6.58,0,0,1,1.59-.18,7.47,7.47,0,0,1,1.41.13,5.94,5.94,0,0,1,1.19.35q0,.52,0,1.2,0,1.11-.12,2.5h1.4c.41.66,0,.86,0,1.63,0,.53-.39,3.1-1.65,3.13q-.23,2.5-1,7.36l-.08.52,0,0,3.86-1.12A4.19,4.19,0,0,1,75.21,69a5.49,5.49,0,0,1-1.06,1,12.25,12.25,0,0,1-2.65,1.66,8,8,0,0,1-3.47.76q-3.27,0-3.48-3.73Q64.43,66.82,64.43,63.66Zm-30,4.21a3,3,0,0,0,1-.43,4.7,4.7,0,0,0,1-.85,2,2,0,0,0,.53-.94l-.1-.37a15.19,15.19,0,0,0-1.86-.11,3.59,3.59,0,0,0-1.15.12,1.74,1.74,0,0,0-.53,1.23,1.55,1.55,0,0,0,.27.89A1.06,1.06,0,0,0,34.38,67.87Z" transform="translate(0 -0.11)" fill="#faf587" stroke="#6495ed" stroke-width="1.32"/></g></g></g></svg>